<?xml version="1.0" encoding="utf-8"?>
<svg xmlns="http://www.w3.org/2000/svg" xmlns:xlink="http://www.w3.org/1999/xlink" viewBox="0 0 390 388"><defs><style>.cls-1{opacity:0.7;}.cls-2{fill:#001b41;}.cls-3{fill:url(#Unbenannter_Verlauf_24);}.cls-4{fill:#f6f7f8;}.cls-16,.cls-5{fill:none;stroke-width:2.03px;}.cls-5{stroke:#fff;stroke-miterlimit:10;}.cls-6{fill:#f765a6;}.cls-7{fill:#fcd02c;}.cls-8{fill:#3adebe;}.cls-9{fill:url(#Unbenannter_Verlauf_24-2);}.cls-10{fill:url(#Unbenannter_Verlauf_24-3);}.cls-11{fill:#dfe2e7;}.cls-12{fill:url(#Unbenannter_Verlauf_214);}.cls-13{fill:#95a0b0;}.cls-14{fill:url(#Unbenannter_Verlauf_24-4);}.cls-15{fill:url(#Unbenannter_Verlauf_24-5);}.cls-16{stroke:#95a0b0;stroke-linecap:round;stroke-linejoin:round;}.cls-17{fill:url(#Unbenannter_Verlauf_51);}.cls-18{fill:url(#Unbenannter_Verlauf_24-6);}.cls-19{fill:url(#Unbenannter_Verlauf_24-7);}.cls-20{fill:url(#Unbenannter_Verlauf_51-2);}.cls-21{opacity:0.2;}.cls-22{opacity:0.9;}.cls-23{fill:url(#Neues_Verlaufsfeld_20);}.cls-24{fill:url(#Unbenannter_Verlauf_7);}.cls-25{fill:#777bb3;}.cls-26{fill:#fff;}</style><linearGradient id="Unbenannter_Verlauf_24" x1="116.34" y1="161.65" x2="288.5" y2="161.65" gradientUnits="userSpaceOnUse"><stop offset="0" stop-color="#f6f7f8"/><stop offset="1" stop-color="#95a0b0"/></linearGradient><linearGradient id="Unbenannter_Verlauf_24-2" x1="136.1" y1="168.2" x2="176.35" y2="159.84" xlink:href="#Unbenannter_Verlauf_24"/><linearGradient id="Unbenannter_Verlauf_24-3" x1="183.89" y1="181.12" x2="150.07" y2="163.29" xlink:href="#Unbenannter_Verlauf_24"/><linearGradient id="Unbenannter_Verlauf_214" x1="201.69" y1="1.19" x2="201.69" y2="172.78" gradientUnits="userSpaceOnUse"><stop offset="0.34" stop-color="#e7f9fc" stop-opacity="0"/><stop offset="0.44" stop-color="#bfeff8" stop-opacity="0.11"/><stop offset="0.67" stop-color="#6ddcef" stop-opacity="0.32"/><stop offset="0.85" stop-color="#3bd0ea" stop-opacity="0.45"/><stop offset="0.95" stop-color="#28cce8" stop-opacity="0.5"/></linearGradient><linearGradient id="Unbenannter_Verlauf_24-4" x1="162.19" y1="166.23" x2="202.44" y2="157.87" gradientTransform="matrix(-1, 0, 0, 1, 435.15, 0)" xlink:href="#Unbenannter_Verlauf_24"/><linearGradient id="Unbenannter_Verlauf_24-5" x1="209.98" y1="179.15" x2="176.16" y2="161.32" gradientTransform="matrix(-1, 0, 0, 1, 435.15, 0)" xlink:href="#Unbenannter_Verlauf_24"/><linearGradient id="Unbenannter_Verlauf_51" x1="-21.88" y1="328.84" x2="118.88" y2="328.84" gradientUnits="userSpaceOnUse"><stop offset="0" stop-color="#f6f7f8"/><stop offset="0.07" stop-color="#eceef0"/><stop offset="0.34" stop-color="#c6ccd5"/><stop offset="0.6" stop-color="#abb4c0"/><stop offset="0.83" stop-color="#9ba5b4"/><stop offset="1" stop-color="#95a0b0"/></linearGradient><linearGradient id="Unbenannter_Verlauf_24-6" x1="287.18" y1="334.81" x2="306.24" y2="330.86" gradientTransform="matrix(-1, 0, 0, 1, 400.95, 0)" xlink:href="#Unbenannter_Verlauf_24"/><linearGradient id="Unbenannter_Verlauf_24-7" x1="309.81" y1="340.93" x2="293.8" y2="332.49" gradientTransform="matrix(-1, 0, 0, 1, 400.95, 0)" xlink:href="#Unbenannter_Verlauf_24"/><linearGradient id="Unbenannter_Verlauf_51-2" x1="187.87" y1="328.84" x2="328.63" y2="328.84" gradientTransform="matrix(-1, 0, 0, 1, 599.75, 0)" xlink:href="#Unbenannter_Verlauf_51"/><linearGradient id="Neues_Verlaufsfeld_20" x1="276.76" y1="183.83" x2="276.76" y2="337.45" gradientTransform="matrix(-0.87, -0.5, 0, 1.15, 560.1, 104.48)" gradientUnits="userSpaceOnUse"><stop offset="0" stop-color="#3e4dda"/><stop offset="1" stop-color="#091471"/></linearGradient><linearGradient id="Unbenannter_Verlauf_7" x1="596.85" y1="183.05" x2="717.93" y2="183.05" gradientTransform="matrix(-0.18, 0.98, -0.88, -0.75, 481.11, -380.78)" gradientUnits="userSpaceOnUse"><stop offset="0" stop-color="#7377a9"/><stop offset="0.05" stop-color="#6f73a6"/><stop offset="0.38" stop-color="#595d96"/><stop offset="0.7" stop-color="#4c508c"/><stop offset="1" stop-color="#484c89"/></linearGradient></defs><title>georedundant-infrastructure</title><g id="Ebene_1" data-name="Ebene 1"><g class="cls-1"><path class="cls-2" d="M199.66,118.74a6.16,6.16,0,0,1,5.52,0l82.2,47.46c1.52.88,1.52,2.31,0,3.19l-82.2,47.45a6.1,6.1,0,0,1-5.52,0l-82.2-47.45c-1.52-.88-1.52-2.31,0-3.19Z"/></g><path class="cls-3" d="M116.34,120.05V151.3a6.13,6.13,0,0,0,2.76,4.78l80.56,46.51a6.1,6.1,0,0,0,5.52,0l80.56-46.51a6.13,6.13,0,0,0,2.76-4.78V120.05"/><path class="cls-4" d="M199.66,70.19a6.1,6.1,0,0,1,5.52,0l82.2,47.46c1.52.87,1.52,2.31,0,3.18l-82.2,47.46a6.1,6.1,0,0,1-5.52,0l-82.2-47.46c-1.52-.87-1.52-2.31,0-3.18Z"/><path class="cls-4" d="M199.66,70.19a6.1,6.1,0,0,1,5.52,0l82.2,47.45c1.52.88,1.52,2.31,0,3.19l-82.2,47.46a6.16,6.16,0,0,1-5.52,0l-82.2-47.46c-1.52-.88-1.52-2.31,0-3.19Z"/><path class="cls-5" d="M199.66,70.19a6.1,6.1,0,0,1,5.52,0l82.2,47.45c1.52.88,1.52,2.31,0,3.19l-82.2,47.46a6.16,6.16,0,0,1-5.52,0l-82.2-47.46c-1.52-.88-1.52-2.31,0-3.19Z"/><ellipse id="Oval" class="cls-6" cx="202.74" cy="78.75" rx="2.78" ry="1.57" transform="translate(-0.41 1.05) rotate(-0.3)"/><ellipse id="Oval-2" data-name="Oval" class="cls-7" cx="209.1" cy="82.46" rx="2.78" ry="1.57" transform="translate(-0.42 1.09) rotate(-0.3)"/><ellipse id="Oval-3" data-name="Oval" class="cls-8" cx="215.66" cy="86.24" rx="2.78" ry="1.57" transform="translate(-0.44 1.12) rotate(-0.3)"/><path class="cls-9" d="M147.56,162.76c-1.52-.87-1.52-2.3,0-3.18l3.19-1.84a6.14,6.14,0,0,1,5.51,0l11.89,6.86c1.52.88,1.52,2.31,0,3.19L165,169.63a6.16,6.16,0,0,1-5.52,0Z"/><path class="cls-10" d="M166.72,165.38c1.56-.81,2.81,0,2.78,1.72l-.06,3.24a6.27,6.27,0,0,1-2.82,4.78L163.44,177c-1.52.87-2.76.16-2.76-1.59v-3.68a5.76,5.76,0,0,1,2.83-4.65Z"/><path class="cls-11" d="M146.38,161.68c0-1.75,1.24-2.47,2.76-1.59L161,167a6.09,6.09,0,0,1,2.76,4.77v3.68c0,1.76-1.24,2.47-2.76,1.6l-11.88-6.87a6.1,6.1,0,0,1-2.76-4.78Z"/><ellipse class="cls-2" cx="154.63" cy="169.19" rx="1.87" ry="3.23" transform="translate(-63.88 99.98) rotate(-30)"/><path class="cls-12" d="M115.68,6.84V115.5a6,6,0,0,0,2.73,4.73l81.36,47a6,6,0,0,0,5.46,0L285,121a6.07,6.07,0,0,0,2.73-4.73V6.84"/><path class="cls-13" d="M208.92,190.44a2.72,2.72,0,0,0-1.22,2.12c0,.78.55,1.09,1.22.7a2.67,2.67,0,0,0,1.22-2.11C210.14,190.37,209.6,190.05,208.92,190.44Z"/><path class="cls-13" d="M212.46,188.4a2.69,2.69,0,0,0-1.22,2.12c0,.78.54,1.09,1.22.7a2.7,2.7,0,0,0,1.22-2.11C213.68,188.33,213.13,188,212.46,188.4Z"/><path class="cls-13" d="M216,186.36a2.7,2.7,0,0,0-1.23,2.12c0,.78.55,1.09,1.22.7a2.68,2.68,0,0,0,1.23-2.11C217.22,186.29,216.67,186,216,186.36Z"/><path class="cls-13" d="M208.92,194.25a2.72,2.72,0,0,0-1.22,2.12c0,.77.55,1.09,1.22.7a2.7,2.7,0,0,0,1.22-2.11C210.14,194.18,209.6,193.86,208.92,194.25Z"/><path class="cls-13" d="M212.46,192.21a2.69,2.69,0,0,0-1.22,2.12c0,.77.54,1.09,1.22.7a2.7,2.7,0,0,0,1.22-2.11C213.68,192.14,213.13,191.82,212.46,192.21Z"/><path class="cls-13" d="M216,190.17a2.72,2.72,0,0,0-1.22,2.12c0,.77.55,1.09,1.22.7a2.69,2.69,0,0,0,1.22-2.11C217.21,190.1,216.67,189.78,216,190.17Z"/><path class="cls-13" d="M219.5,184.34a2.7,2.7,0,0,0-1.23,2.11c0,.78.55,1.1,1.22.71a2.7,2.7,0,0,0,1.23-2.12C220.72,184.27,220.17,184,219.5,184.34Z"/><path class="cls-13" d="M223,182.3a2.7,2.7,0,0,0-1.22,2.11c0,.78.55,1.1,1.22.71a2.72,2.72,0,0,0,1.22-2.12C224.25,182.23,223.71,181.91,223,182.3Z"/><path class="cls-13" d="M226.57,180.26a2.67,2.67,0,0,0-1.22,2.11c0,.78.54,1.1,1.22.71a2.72,2.72,0,0,0,1.22-2.12C227.79,180.19,227.24,179.87,226.57,180.26Z"/><path class="cls-13" d="M219.49,188.15a2.7,2.7,0,0,0-1.22,2.11c0,.78.55,1.1,1.22.71a2.69,2.69,0,0,0,1.22-2.12C220.71,188.08,220.17,187.76,219.49,188.15Z"/><ellipse class="cls-13" cx="223.03" cy="187.52" rx="1.73" ry="1" transform="translate(-50.95 286.72) rotate(-59.96)"/><path class="cls-13" d="M226.57,184.07a2.68,2.68,0,0,0-1.23,2.11c0,.78.55,1.1,1.22.71a2.7,2.7,0,0,0,1.23-2.12C227.79,184,227.24,183.68,226.57,184.07Z"/><path class="cls-13" d="M230.07,178.24a2.66,2.66,0,0,0-1.22,2.11c0,.78.54,1.09,1.22.7a2.68,2.68,0,0,0,1.22-2.11C231.29,178.16,230.74,177.85,230.07,178.24Z"/><path class="cls-13" d="M233.6,176.2a2.68,2.68,0,0,0-1.22,2.11c0,.78.55,1.09,1.22.7a2.67,2.67,0,0,0,1.22-2.11C234.82,176.12,234.28,175.81,233.6,176.2Z"/><path class="cls-13" d="M237.14,174.16a2.68,2.68,0,0,0-1.22,2.11c0,.78.54,1.09,1.22.7a2.7,2.7,0,0,0,1.22-2.11C238.36,174.08,237.81,173.77,237.14,174.16Z"/><path class="cls-13" d="M230.07,182a2.7,2.7,0,0,0-1.23,2.12c0,.78.55,1.09,1.22.7a2.68,2.68,0,0,0,1.23-2.11C231.29,182,230.74,181.66,230.07,182Z"/><path class="cls-13" d="M233.6,180a2.72,2.72,0,0,0-1.22,2.12c0,.78.55,1.09,1.22.7a2.67,2.67,0,0,0,1.22-2.11C234.82,179.93,234.28,179.62,233.6,180Z"/><path class="cls-13" d="M237.14,178a2.69,2.69,0,0,0-1.22,2.12c0,.78.54,1.09,1.22.7a2.7,2.7,0,0,0,1.22-2.11C238.36,177.89,237.81,177.57,237.14,178Z"/><path class="cls-13" d="M268.86,155.84a2.69,2.69,0,0,0-1.22,2.12c0,.78.54,1.09,1.22.7a2.7,2.7,0,0,0,1.22-2.11C270.08,155.77,269.53,155.45,268.86,155.84Z"/><path class="cls-13" d="M268.86,159.65a2.7,2.7,0,0,0-1.23,2.12c0,.77.55,1.09,1.22.7a2.7,2.7,0,0,0,1.23-2.11C270.08,159.58,269.53,159.26,268.86,159.65Z"/><path class="cls-13" d="M272.36,153.82a2.69,2.69,0,0,0-1.22,2.11c0,.78.54,1.1,1.22.71a2.72,2.72,0,0,0,1.22-2.12C273.58,153.75,273,153.43,272.36,153.82Z"/><path class="cls-13" d="M275.89,151.78a2.7,2.7,0,0,0-1.22,2.11c0,.78.55,1.1,1.22.71a2.69,2.69,0,0,0,1.22-2.12C277.11,151.71,276.57,151.39,275.89,151.78Z"/><path class="cls-13" d="M279.43,149.74a2.7,2.7,0,0,0-1.22,2.11c0,.78.54,1.1,1.22.71a2.72,2.72,0,0,0,1.22-2.12C280.65,149.67,280.1,149.35,279.43,149.74Z"/><path class="cls-13" d="M272.36,157.63a2.68,2.68,0,0,0-1.23,2.11c0,.78.55,1.1,1.22.71a2.7,2.7,0,0,0,1.23-2.12C273.58,157.55,273,157.24,272.36,157.63Z"/><path class="cls-13" d="M275.89,155.59a2.7,2.7,0,0,0-1.22,2.11c0,.78.55,1.1,1.22.71a2.69,2.69,0,0,0,1.22-2.12C277.11,155.51,276.57,155.2,275.89,155.59Z"/><path class="cls-13" d="M279.43,153.55a2.67,2.67,0,0,0-1.22,2.11c0,.78.54,1.1,1.22.71a2.72,2.72,0,0,0,1.22-2.12C280.65,153.47,280.1,153.16,279.43,153.55Z"/><path class="cls-13" d="M282.93,150.53a2.7,2.7,0,0,0,1.22-2.11c0-.78-.55-1.09-1.22-.7a2.68,2.68,0,0,0-1.22,2.11C281.71,150.61,282.25,150.92,282.93,150.53Z"/><path class="cls-13" d="M282.93,151.52a2.69,2.69,0,0,0-1.22,2.12c0,.78.54,1.09,1.22.7a2.7,2.7,0,0,0,1.22-2.11C284.15,151.45,283.6,151.14,282.93,151.52Z"/><path class="cls-14" d="M261.51,160.79c1.51-.87,1.51-2.31,0-3.18l-3.19-1.84a6.1,6.1,0,0,0-5.52,0l-11.89,6.86c-1.51.88-1.51,2.31,0,3.19l3.19,1.83a6.1,6.1,0,0,0,5.52,0Z"/><path class="cls-15" d="M242.34,163.4c-1.56-.8-2.8,0-2.77,1.73l.06,3.24a6.29,6.29,0,0,0,2.81,4.78l3.19,1.83c1.51.88,2.75.16,2.75-1.59v-3.68a5.76,5.76,0,0,0-2.83-4.65Z"/><path class="cls-11" d="M262.68,159.71c0-1.76-1.24-2.47-2.76-1.6L248,165a6.15,6.15,0,0,0-2.76,4.78v3.68c0,1.75,1.25,2.47,2.76,1.59l11.89-6.86a6.13,6.13,0,0,0,2.76-4.78Z"/><ellipse class="cls-2" cx="254.44" cy="167.21" rx="3.23" ry="1.87" transform="translate(-17.59 303.96) rotate(-60)"/><polyline class="cls-16" points="254.71 167.44 261.31 171.25 260.84 189.28 388.48 263.01 351.25 285.01"/><g class="cls-1"><path class="cls-2" d="M69.64,278.09a5,5,0,0,1,4.51,0l67.21,38.8a1.38,1.38,0,0,1,0,2.61L74.15,358.3a5,5,0,0,1-4.51,0L2.43,319.5a1.38,1.38,0,0,1,0-2.61Z"/></g><path class="cls-17" d="M1.52,305v5.21a5,5,0,0,0,2.25,3.91l65.87,38a5,5,0,0,0,4.51,0l65.87-38a5,5,0,0,0,2.26-3.91V305"/><path class="cls-4" d="M69.64,264.23a5,5,0,0,1,4.51,0L141.36,303a1.37,1.37,0,0,1,0,2.6L74.15,344.45a5,5,0,0,1-4.51,0L2.43,305.64a1.37,1.37,0,0,1,0-2.6Z"/><path class="cls-5" d="M69.64,264.23a5,5,0,0,1,4.51,0L141.36,303a1.37,1.37,0,0,1,0,2.6L74.15,344.45a5,5,0,0,1-4.51,0L2.43,305.64a1.37,1.37,0,0,1,0-2.6Z"/><path class="cls-18" d="M108.35,332.24a.8.8,0,0,0,0-1.51l-1.51-.87a2.94,2.94,0,0,0-2.62,0l-5.62,3.25a.8.8,0,0,0,0,1.51l1.5.87a2.94,2.94,0,0,0,2.62,0Z"/><path class="cls-19" d="M99.27,333.48c-.74-.39-1.33,0-1.31.81l0,1.54a3,3,0,0,0,1.33,2.26l1.51.87c.71.41,1.3.07,1.3-.76v-1.74a2.72,2.72,0,0,0-1.34-2.2Z"/><path class="cls-11" d="M108.9,331.72c0-.82-.59-1.16-1.3-.75L102,334.22a2.89,2.89,0,0,0-1.31,2.26v1.74c0,.83.59,1.17,1.31.76l5.62-3.25a2.92,2.92,0,0,0,1.31-2.27Z"/><ellipse class="cls-2" cx="105.26" cy="334.81" rx="2.17" ry="1.25" transform="matrix(0.5, -0.87, 0.87, 0.5, -237.32, 258.56)"/><polyline class="cls-16" points="153.82 169.56 147.22 173.38 147.7 191.41 80.59 230.17 211.11 305.52 133 350.74 105.26 334.81"/><g class="cls-1"><path class="cls-2" d="M320.36,278.09a5,5,0,0,0-4.51,0l-67.21,38.8a1.38,1.38,0,0,0,0,2.61l67.21,38.8a5,5,0,0,0,4.51,0l67.21-38.8a1.38,1.38,0,0,0,0-2.61Z"/></g><path class="cls-20" d="M388.48,305v5.21a5,5,0,0,1-2.25,3.91l-65.87,38a5,5,0,0,1-4.51,0l-65.87-38a5,5,0,0,1-2.26-3.91V305"/><path class="cls-4" d="M320.36,264.23a5,5,0,0,0-4.51,0L248.64,303a1.37,1.37,0,0,0,0,2.6l67.21,38.81a5,5,0,0,0,4.51,0l67.21-38.81a1.37,1.37,0,0,0,0-2.6Z"/><path class="cls-5" d="M320.36,264.23a5,5,0,0,0-4.51,0L248.64,303a1.37,1.37,0,0,0,0,2.6l67.21,38.81a5,5,0,0,0,4.51,0l67.21-38.81a1.37,1.37,0,0,0,0-2.6Z"/><path class="cls-13" d="M199.76,194.41c.67.39,1.22.07,1.22-.7a2.72,2.72,0,0,0-1.22-2.12c-.68-.39-1.22-.07-1.22.71A2.69,2.69,0,0,0,199.76,194.41Z"/><ellipse class="cls-13" cx="196.22" cy="190.96" rx="1" ry="1.73" transform="translate(-69.24 123.88) rotate(-30.04)"/><path class="cls-13" d="M192.69,190.33c.67.39,1.22.07,1.22-.71a2.72,2.72,0,0,0-1.22-2.11c-.68-.39-1.23-.07-1.23.71A2.73,2.73,0,0,0,192.69,190.33Z"/><path class="cls-13" d="M199.76,195.4c-.68-.39-1.22-.07-1.22.7a2.72,2.72,0,0,0,1.22,2.12c.67.39,1.22.07,1.22-.71A2.72,2.72,0,0,0,199.76,195.4Z"/><path class="cls-13" d="M196.22,193.36c-.67-.39-1.22-.07-1.22.7a2.72,2.72,0,0,0,1.22,2.12c.68.39,1.23.07,1.22-.71A2.69,2.69,0,0,0,196.22,193.36Z"/><path class="cls-13" d="M192.69,191.32c-.68-.39-1.22-.07-1.22.7a2.69,2.69,0,0,0,1.22,2.12c.67.39,1.22.07,1.22-.71A2.72,2.72,0,0,0,192.69,191.32Z"/><path class="cls-13" d="M189.19,188.31c.67.38,1.22.07,1.22-.71a2.7,2.7,0,0,0-1.22-2.11c-.68-.39-1.23-.08-1.23.7A2.73,2.73,0,0,0,189.19,188.31Z"/><path class="cls-13" d="M185.65,186.27c.67.38,1.22.07,1.22-.71a2.7,2.7,0,0,0-1.22-2.11c-.68-.39-1.22-.08-1.22.7A2.72,2.72,0,0,0,185.65,186.27Z"/><path class="cls-13" d="M182.11,184.23c.68.38,1.22.07,1.22-.71a2.67,2.67,0,0,0-1.22-2.11c-.67-.39-1.22-.08-1.22.7A2.72,2.72,0,0,0,182.11,184.23Z"/><path class="cls-13" d="M189.19,189.3c-.68-.39-1.22-.08-1.22.7a2.66,2.66,0,0,0,1.22,2.11c.67.39,1.22.08,1.22-.7A2.7,2.7,0,0,0,189.19,189.3Z"/><path class="cls-13" d="M185.65,187.26c-.67-.39-1.22-.08-1.22.7a2.68,2.68,0,0,0,1.22,2.11c.68.39,1.22.08,1.22-.7A2.7,2.7,0,0,0,185.65,187.26Z"/><path class="cls-13" d="M182.11,185.22c-.67-.39-1.22-.08-1.22.7a2.68,2.68,0,0,0,1.23,2.11c.67.39,1.22.08,1.22-.7A2.67,2.67,0,0,0,182.11,185.22Z"/><path class="cls-13" d="M178.61,182.2c.68.39,1.22.08,1.22-.7a2.69,2.69,0,0,0-1.22-2.12c-.67-.39-1.22-.07-1.22.71A2.7,2.7,0,0,0,178.61,182.2Z"/><ellipse class="cls-13" cx="175.08" cy="178.75" rx="1" ry="1.73" transform="translate(-65.97 111.65) rotate(-30.04)"/><path class="cls-13" d="M171.54,178.12c.68.39,1.22.07,1.22-.7a2.72,2.72,0,0,0-1.22-2.12c-.67-.39-1.22-.07-1.22.71A2.7,2.7,0,0,0,171.54,178.12Z"/><path class="cls-13" d="M178.61,183.19c-.67-.39-1.22-.07-1.22.71a2.68,2.68,0,0,0,1.23,2.11c.67.39,1.22.07,1.22-.7A2.7,2.7,0,0,0,178.61,183.19Z"/><path class="cls-13" d="M175.08,181.15c-.68-.39-1.22-.07-1.22.71a2.69,2.69,0,0,0,1.22,2.11c.67.39,1.22.07,1.22-.7A2.72,2.72,0,0,0,175.08,181.15Z"/><path class="cls-13" d="M171.54,179.11c-.67-.39-1.22-.07-1.22.71a2.72,2.72,0,0,0,1.22,2.11c.68.39,1.22.07,1.22-.7A2.69,2.69,0,0,0,171.54,179.11Z"/><path class="cls-13" d="M139.83,160c.67.38,1.22.07,1.22-.71a2.68,2.68,0,0,0-1.23-2.11c-.67-.39-1.22-.08-1.22.7A2.7,2.7,0,0,0,139.83,160Z"/><path class="cls-13" d="M136.29,157.91c.67.38,1.22.07,1.22-.71a2.7,2.7,0,0,0-1.22-2.11c-.68-.39-1.22-.08-1.22.7A2.69,2.69,0,0,0,136.29,157.91Z"/><path class="cls-13" d="M139.83,160.94c-.68-.39-1.22-.08-1.22.7a2.66,2.66,0,0,0,1.22,2.11c.67.39,1.22.08,1.22-.7A2.7,2.7,0,0,0,139.83,160.94Z"/><path class="cls-13" d="M136.29,158.9c-.67-.39-1.22-.08-1.22.7a2.68,2.68,0,0,0,1.22,2.11c.68.39,1.22.08,1.22-.7A2.7,2.7,0,0,0,136.29,158.9Z"/><path class="cls-13" d="M132.79,155.88c.67.39,1.22.08,1.22-.7a2.72,2.72,0,0,0-1.22-2.12c-.68-.39-1.22-.07-1.22.71A2.67,2.67,0,0,0,132.79,155.88Z"/><ellipse class="cls-13" cx="129.25" cy="152.43" rx="1" ry="1.73" transform="matrix(0.87, -0.5, 0.5, 0.87, -58.95, 85.18)"/><path class="cls-13" d="M125.72,151.8c.67.39,1.22.08,1.22-.7a2.72,2.72,0,0,0-1.22-2.12c-.68-.39-1.23-.07-1.22.71A2.67,2.67,0,0,0,125.72,151.8Z"/><path class="cls-13" d="M132.79,156.87c-.67-.39-1.22-.07-1.22.71a2.7,2.7,0,0,0,1.22,2.11c.68.39,1.22.07,1.22-.7A2.72,2.72,0,0,0,132.79,156.87Z"/><path class="cls-13" d="M129.25,154.83c-.67-.39-1.22-.07-1.22.71a2.7,2.7,0,0,0,1.22,2.11c.68.39,1.23.07,1.23-.7A2.73,2.73,0,0,0,129.25,154.83Z"/><path class="cls-13" d="M125.72,152.79c-.68-.39-1.22-.07-1.22.71a2.69,2.69,0,0,0,1.22,2.11c.67.39,1.22.07,1.22-.7A2.72,2.72,0,0,0,125.72,152.79Z"/><path class="cls-13" d="M122.22,149.78c.67.39,1.22.07,1.22-.71a2.72,2.72,0,0,0-1.22-2.11c-.68-.39-1.23-.07-1.22.7A2.69,2.69,0,0,0,122.22,149.78Z"/><path class="cls-13" d="M122.22,150.77c-.68-.39-1.22-.08-1.22.7a2.69,2.69,0,0,0,1.22,2.12c.67.39,1.22.07,1.22-.71A2.7,2.7,0,0,0,122.22,150.77Z"/><g class="cls-21"><path class="cls-13" d="M366.08,225a5,5,0,0,0-2.23-3.87l-69.77-40.28c-1.23-.71-2.23-.13-2.23,1.29v91.47a5,5,0,0,0,2.23,3.87l69.77,40.28c1.23.71,2.23.13,2.23-1.29Z"/></g><g class="cls-22"><path class="cls-23" d="M357.53,230a5,5,0,0,0-2.23-3.86l-69.77-40.28c-1.23-.71-2.23-.13-2.23,1.29v91.47a4.92,4.92,0,0,0,2.23,3.86l69.77,40.29c1.23.7,2.23.13,2.23-1.29Z"/></g><g id="Ebene_4_Kopie_2" data-name="Ebene 4 Kopie 2"><ellipse class="cls-24" cx="204.32" cy="118.43" rx="22.99" ry="49.66" transform="translate(23.95 270.87) rotate(-70.3)"/><ellipse class="cls-25" cx="204.16" cy="118.34" rx="21.39" ry="47.53" transform="translate(21.74 268.03) rotate(-69.47)"/><path class="cls-26" d="M202.55,103.46l-9.08-5.24a3.24,3.24,0,0,0-3.08-.09l-28.24,11.73c-.73.3-.82.78-.26,1.1l4.29,2.48a3.32,3.32,0,0,0,2.91-.1l5.74-2.49s4.53,2.64,5.71,3.16,8.41,3.88,19-.41C209.61,109.54,204.21,104.42,202.55,103.46ZM191.93,110c-3.94,1.26-5.91.23-6.54-.1-1.09-.58-3.25-1.88-3.25-1.88l9.39-3.88,3.16,1.83c1.39.82,1.73,1.81.61,2.51A15.14,15.14,0,0,1,191.93,110Z"/><path d="M201.81,104.27l-10-5.78L163,110.35l4.69,2.7,7.61-3.19s5.15,3,6.33,3.52,8,3.51,17.35-.61S201.81,104.27,201.81,104.27Zm-9.63,6.47a10.82,10.82,0,0,1-7.86-.25C183.63,110.2,180,108,180,108L191.85,103s3.27,1.78,4.58,2.64,1.32,2.21.2,2.91A17.34,17.34,0,0,1,192.18,110.74Z"/><path class="cls-26" d="M219.73,105.73l4.14,2.44c.51.3.36.84-.32,1.13L217,111.93s2.77,1.68,4.9,3c4.66,3.34.75,5.84-.76,6.68-4.56,2-11.78,4.87-14.74,6.05a3,3,0,0,1-2.35,0l-4.41-2.58c-1-.39,0-1,1.1-1.49,3.39-1.36,9.61-3.87,12.55-5.21,1.57-.72,1.32-.68,1-.88-2.08-1.27-4.36-2.69-4.36-2.69l-15.12,6.29a2.63,2.63,0,0,1-2.1,0l-4.32-2.44c-.64-.37-.46-1,.38-1.37l27.7-11.62A3.31,3.31,0,0,1,219.73,105.73Z"/><path d="M218.22,106.09l4.46,2.65-7.48,3.17s3,1.63,6.14,3.74c3.6,2.76.41,4.6-1.1,5.44-5.84,2.5-15,6.15-15,6.15l-4.61-2.74s9.84-3.89,14-5.79c1.57-.72,1.11-1.63.78-1.84-2.08-1.26-5.12-3.06-5.12-3.06l-16.51,6.81-4.41-2.68Z"/><path class="cls-26" d="M238.71,124.34l-9.08-5.24a3.22,3.22,0,0,0-3.07-.09l-28.24,11.73c-.73.3-.82.78-.26,1.1l4.29,2.48a3.3,3.3,0,0,0,2.9-.1l5.75-2.49s4.52,2.64,5.7,3.16,8.42,3.88,19.05-.41C245.78,130.42,240.38,125.3,238.71,124.34Zm-10.61,6.52c-3.94,1.26-5.91.23-6.54-.1-1.09-.58-3.26-1.88-3.26-1.88l9.4-3.88,3.15,1.83c1.4.82,1.74,1.81.62,2.51A15.14,15.14,0,0,1,228.1,130.86Z"/><path d="M238,125.15l-10-5.78-28.8,11.86,4.68,2.7,7.62-3.19s5.15,3,6.32,3.52,8.05,3.51,17.35-.61S238,125.15,238,125.15Zm-9.62,6.47a10.81,10.81,0,0,1-7.86-.25c-.7-.29-4.35-2.51-4.35-2.51L228,123.92s3.27,1.78,4.59,2.64,1.32,2.21.2,2.91A17.51,17.51,0,0,1,228.35,131.62Z"/></g></g></svg>